<svg xmlns="http://www.w3.org/2000/svg" version="1.1" xmlns:xlink="http://www.w3.org/1999/xlink" xmlns:svgjs="http://svgjs.dev/svgjs" width="1440" height="560" preserveAspectRatio="none" viewBox="0 0 1440 560"><g mask="url(&quot;#SvgjsMask1001&quot;)" fill="none"><rect width="1440" height="560" x="0" y="0" fill="rgba(255, 255, 255, 1)"></rect><path d="M225.56 0C258.4 12.32 248.95 52.5 280 52.5C326.86 52.5 329.07 19.61 381.38 0C399.07 -6.64 400.69 0 420 0C490 0 490 0 560 0C630 0 630 0 700 0C770 0 770 0 840 0C885.71 0 888.04 -8.68 931.43 0C958.04 5.32 956.25 28 980 28C1001.05 28 997.64 4.68 1021.03 0C1067.64 -9.32 1070.51 0 1120 0C1190 0 1190 0 1260 0C1330 0 1330 0 1400 0C1470 0 1500.73 -30.73 1540 0C1570.73 24.05 1551.35 59.64 1540 109.57C1535.44 129.64 1508.18 120.73 1508.18 140C1508.18 185.94 1528.48 189.32 1540 240C1544.39 259.32 1540 260 1540 280C1540 350 1540 350 1540 420C1540 490 1575 525 1540 560C1505 595 1470 560 1400 560C1330 560 1330 560 1260 560C1190 560 1190 560 1120 560C1050 560 1050 560 980 560C910 560 910 560 840 560C770 560 770 560 700 560C630 560 630 560 560 560C490 560 490 560 420 560C350 560 350 560 280 560C219.72 560 215.95 568.56 159.44 560C145.95 557.96 152.62 538.79 140 538.79C107.9 538.79 105.77 554.58 70 560C35.77 565.19 11.67 583.33 0 560C-23.33 513.33 0 490 0 420C0 350 0 350 0 280C0 210 0 210 0 140C0 70 -35 35 0 0C35 -35 70 0 140 0C182.78 0 188.4 -13.93 225.56 0" stroke="rgba(51, 121, 194, 0.58)" stroke-width="2"></path><path d="M560 53.1C526.44 59.68 525.48 100.18 525.48 140C525.48 160.65 538.04 165.45 560 174.05C625.3 199.63 641.43 219.29 700 208.37C732.73 202.27 742.61 170.56 742.61 140C742.61 119.28 724.42 117.43 700 105.81C633.12 73.98 613.7 42.58 560 53.1" stroke="rgba(51, 121, 194, 0.58)" stroke-width="2"></path><path d="M280 259.51C272.54 259.51 268.17 269.59 268.17 280C268.17 291.5 272.39 303.33 280 303.33C289.36 303.33 302.11 291.31 302.11 280C302.11 269.4 289.51 259.51 280 259.51" stroke="rgba(51, 121, 194, 0.58)" stroke-width="2"></path><path d="M1260 230C1220.62 230 1183.91 248.76 1183.91 280C1183.91 322.37 1219 377.22 1260 377.22C1305.66 377.22 1357.22 321.01 1357.22 280C1357.22 247.4 1307.28 230 1260 230" stroke="rgba(51, 121, 194, 0.58)" stroke-width="2"></path><path d="M840 321.62C802.86 327.73 797.67 374.74 797.67 420C797.67 445.6 812.52 458.37 840 463.33C903.69 474.84 912.31 466.91 980 452.94C1017.31 445.24 1050 435.86 1050 420C1050 404.39 1014.47 406.15 980 390C909.47 356.96 894.03 312.73 840 321.62" stroke="rgba(51, 121, 194, 0.58)" stroke-width="2"></path><path d="M160.74 0C222.95 51.1 212.84 101.88 280 115C342.47 127.2 361.55 43.24 420 50.64C460.31 55.74 444.04 99.16 477.53 140C514.04 184.52 512.52 189.71 560 221.35C617.58 259.71 625.04 248.83 687.65 280C695.04 283.68 696.35 283.69 700 291.05C731.02 353.69 718.99 361.95 756.98 420C788.99 468.92 789 481.77 840 505C900.51 532.56 911.03 508.02 980 521.57C1051.03 535.52 1120 550.22 1120 560C1120 569.43 1050 560 980 560C910 560 910 560 840 560C770 560 770 560 700 560C630 560 630 560 560 560C490 560 490 560 420 560C350 560 350 560 280 560C268.34 560 265 567.58 256.67 560C195 503.94 208.13 450.43 140 432.73C79.8 417.09 47.28 497.63 0 493.33C-22.72 491.26 0 456.66 0 420C0 350 0 350 0 280C0 210 0 210 0 140C0 70 -35 35 0 0C35 -35 70 0 140 0C150.37 0 152.95 -6.4 160.74 0" stroke="rgba(51, 121, 194, 0.58)" stroke-width="2"></path><path d="M700 65.12C650.17 29.72 596.3 17.63 596.3 0C596.3 -14.93 648.15 0 700 0C770 0 770 0 840 0C850 0 851.17 -4.36 860 0C921.17 30.23 921.31 69.18 980 69.18C1032 69.18 1028.13 26.31 1081.38 0C1098.13 -8.28 1100.69 0 1120 0C1164.8 0 1169.43 -12.47 1209.6 0C1239.43 9.26 1238.65 43.45 1260 43.45C1275.96 43.45 1263.19 6.53 1284.23 0C1333.19 -15.2 1342.11 0 1400 0C1460.2 0 1520.4 -24.59 1520.4 0C1520.4 34.43 1463.12 62.95 1400 118.04C1382.92 132.95 1380.83 130.78 1360 140C1310.83 161.76 1310.12 180 1260 180C1208.27 180 1202.85 167.47 1156.3 140C1132.85 126.17 1135.21 97.39 1120 97.39C1107.26 97.39 1103.45 117.1 1100.4 140C1091.28 208.4 1127.46 230.46 1095.65 280C1067.26 324.21 1036.13 327.5 980 327.5C938 327.5 937.22 307.15 899.39 280C867.22 256.91 863.66 258.27 840 227.03C810.63 188.27 824.98 176.6 793.33 140C754.98 95.65 748.69 99.72 700 65.12" stroke="rgba(51, 121, 194, 0.58)" stroke-width="2"></path><path d="M280 174.15C241.45 174.15 218.87 226.24 218.87 280C218.87 339.45 240.66 400.56 280 400.56C328.33 400.56 394.21 338.42 394.21 280C394.21 225.22 329.12 174.15 280 174.15" stroke="rgba(51, 121, 194, 0.58)" stroke-width="2"></path><path d="M1300 420C1350.53 370.56 1340.25 338.15 1400 320C1460.25 301.69 1493.68 314 1540 347.08C1563.68 364 1540 383.54 1540 420C1540 490 1575 525 1540 560C1505 595 1470 560 1400 560C1330 560 1330 560 1260 560C1190 560 1120 582.98 1120 560C1120 531.47 1191.48 510.28 1260 456.98C1281.48 440.28 1280.53 439.05 1300 420" stroke="rgba(51, 121, 194, 0.58)" stroke-width="2"></path><path d="M72 0C110.96 16.56 106.7 28.98 140 59.5C183.07 98.98 218.27 91.8 224.74 140C233.06 202.05 199.31 210.98 169.58 280C156.94 309.36 160.68 336.76 140 336.76C110.89 336.76 96.41 315.47 70 280C26.41 221.46 33.06 214.86 0 148.75C-1.94 144.86 0 144.38 0 140C0 70 -23.77 46.23 0 0C12.23 -23.77 40.96 -13.19 72 0" stroke="rgba(51, 121, 194, 0.58)" stroke-width="2"></path><path d="M385 140C385 129.79 404.79 125.11 420 125.11C427.08 125.11 429.59 131.91 429.59 140C429.59 154.57 429.09 170.43 420 170.43C406.79 170.43 385 152.45 385 140" stroke="rgba(51, 121, 194, 0.58)" stroke-width="2"></path><path d="M700 24.42C679.37 24.42 661.11 6.61 661.11 0C661.11 -5.6 680.56 0 700 0C731.82 0 763.64 -5.9 763.64 0C763.64 6.31 730.63 24.42 700 24.42" stroke="rgba(51, 121, 194, 0.58)" stroke-width="2"></path><path d="M854 140C854 110.3 919.25 110.35 980 110.35C1007.45 110.35 1030.4 117.5 1030.4 140C1030.4 184.82 1016.62 245 980 245C928.42 245 854 177.63 854 140" stroke="rgba(51, 121, 194, 0.58)" stroke-width="2"></path><path d="M1400 49.41C1375.53 49.41 1351.54 14.53 1351.54 0C1351.54 -10.17 1375.77 0 1400 0C1425.2 0 1450.4 -10.29 1450.4 0C1450.4 14.41 1424.96 49.41 1400 49.41" stroke="rgba(51, 121, 194, 0.58)" stroke-width="2"></path><path d="M525 280C525 269.5 542.83 268.65 560 268.65C572.69 268.65 584.71 270.59 584.71 280C584.71 296.27 574.01 320 560 320C544.16 320 525 295.17 525 280" stroke="rgba(51, 121, 194, 0.58)" stroke-width="2"></path><path d="M367.5 420C381.19 385.66 392.56 364 420 364C449.92 364 450.63 392.55 482.22 420C520.63 453.37 520.49 485.63 560 485.63C601.38 485.63 601.02 451.46 644 420C671.02 400.22 677.42 383.16 700 383.16C713.56 383.16 703.31 404.85 716.28 420C773.31 486.6 771.91 494.48 840 546.67C863.24 564.48 898.95 556.63 898.95 560C898.95 563.29 869.47 560 840 560C770 560 770 560 700 560C630 560 630 560 560 560C490 560 490 560 420 560C380.93 560 351.16 584.81 341.86 560C324.91 514.81 342.12 483.66 367.5 420" stroke="rgba(51, 121, 194, 0.58)" stroke-width="2"></path><path d="M1371.43 420C1371.43 404.43 1381.42 391.43 1400 391.43C1465.71 391.43 1540 402.75 1540 420C1540 437.62 1462.74 461.18 1400 461.18C1378.45 461.18 1371.43 439.31 1371.43 420" stroke="rgba(51, 121, 194, 0.58)" stroke-width="2"></path><path d="M1209.74 560C1209.74 549.76 1234.76 523.02 1260 523.02C1285.68 523.02 1311.58 549.8 1311.58 560C1311.58 568.29 1285.79 560 1260 560C1234.87 560 1209.74 568.25 1209.74 560" stroke="rgba(51, 121, 194, 0.58)" stroke-width="2"></path><path d="M1490.81 560C1490.81 507.43 1527.34 420 1540 420C1551.94 420 1558.2 508.2 1540 560C1533.61 578.2 1490.81 577.43 1490.81 560" stroke="rgba(51, 121, 194, 0.58)" stroke-width="2"></path></g><defs><mask id="SvgjsMask1001"><rect width="1440" height="560" fill="#ffffff"></rect></mask></defs></svg>